<svg xmlns="http://www.w3.org/2000/svg" width="30.851" height="30.787" viewBox="0 0 30.851 30.787">

    <path class="a" fill="#ffffff"
        d="M28.916,5.074H11.935A6.934,6.934,0,0,0,5,12.008V28.926a6.935,6.935,0,0,0,6.935,6.935H28.917a6.935,6.935,0,0,0,6.934-6.935V12.008A6.934,6.934,0,0,0,28.916,5.074Zm-15.3,24.435a1.542,1.542,0,1,1-2.662-1.559l.224-.383a3.78,3.78,0,0,1,1.245-.18h0a2.574,2.574,0,0,1,1.9.907Zm8.671-3.667H10.4a1.543,1.543,0,1,1,0-3.085H14l4.524-7.72-1.4-2.384a1.543,1.543,0,0,1,2.662-1.56l.523.892.523-.892a1.543,1.543,0,1,1,2.662,1.56l-5.921,10.1H20.8a3.787,3.787,0,0,1,1.195,1.265l0,0A2.569,2.569,0,0,1,22.287,25.841Zm8.165,0H28.429l1.236,2.108A1.542,1.542,0,0,1,27,29.508l-4.744-8.1a3.851,3.851,0,0,1,.084-3.812l.637-1.059,3.641,6.216h3.831a1.543,1.543,0,0,1,0,3.085Z"
        transform="translate(-5 -5.074)" />
</svg>