<svg xmlns="http://www.w3.org/2000/svg" width="217.161" height="199.84" viewBox="0 0 217.161 199.84"><defs><style>.a{fill:#3f3d56;}.b{fill:#e6e6e6;}.c{fill:#ccc;}.d{fill:#7d7d7d;}.e{fill:#2f2e41;}.f{fill:#a0616a;}.g{fill:#ffb8b8;}</style></defs><g transform="translate(-0.086 0)"><path class="a" d="M511.21,391.414H412.144a8.882,8.882,0,0,1-8.872-8.875v-38.08c-.205.234-.42.465-.641.689v37.391a9.525,9.525,0,0,0,9.513,9.516h99.345C511.392,391.843,511.3,391.628,511.21,391.414ZM403.272,250.66a8.882,8.882,0,0,1,8.872-8.875h33.008c-.061-.215-.119-.426-.173-.641H412.144a9.525,9.525,0,0,0-9.513,9.516v58.378c.221.224.433.455.641.689Zm133.019,7.485-20.7-16.4a2.8,2.8,0,0,0-1.737-.606h-18.42c-.051.215-.109.429-.17.641h18.59a2.178,2.178,0,0,1,1.339.465l20.7,16.4a1.649,1.649,0,0,1,.628,1.3v95.426c.215.006.429.022.641.038V259.948a2.287,2.287,0,0,0-.872-1.8Z" transform="translate(-357.216 -208.143)"/><path class="b" d="M773.763,260.322h-16.7a4.6,4.6,0,0,1-4.6-4.6V243.39a.287.287,0,0,1,.466-.225l21.011,16.645a.287.287,0,0,1-.178.513Z" transform="translate(-594.961 -209.473)"/><path class="a" d="M773.083,259.962h-16.7a4.923,4.923,0,0,1-4.918-4.918V242.71a.608.608,0,0,1,.985-.477l21.011,16.645a.608.608,0,0,1-.377,1.084Zm0-.641ZM752.1,242.778v12.267a4.282,4.282,0,0,0,4.277,4.277h16.606Z" transform="translate(-594.281 -208.793)"/><path class="c" d="M606.379,353.454H557.247a2.3,2.3,0,1,1,0-4.6h49.132a2.3,2.3,0,0,1,0,4.6Z" transform="translate(-460.73 -281.344)"/><path class="c" d="M615.861,377.667H557.247a2.3,2.3,0,1,1,0-4.6h58.614a2.3,2.3,0,0,1,0,4.6Z" transform="translate(-460.73 -297.799)"/><path class="c" d="M606.379,461.961H557.247a2.3,2.3,0,1,1,0-4.6h49.132a2.3,2.3,0,1,1,0,4.6Z" transform="translate(-460.73 -355.085)"/><path class="c" d="M615.861,486.173H557.247a2.3,2.3,0,1,1,0-4.6h58.614a2.3,2.3,0,0,1,0,4.6Z" transform="translate(-460.73 -371.539)"/><path class="c" d="M606.379,570.468H557.247a2.3,2.3,0,1,1,0-4.6h49.132a2.3,2.3,0,0,1,0,4.6Z" transform="translate(-460.73 -428.826)"/><path class="c" d="M615.861,594.68H557.247a2.3,2.3,0,1,1,0-4.6h58.614a2.3,2.3,0,0,1,0,4.6Z" transform="translate(-460.73 -445.28)"/><path class="d" d="M800.6,737.953q-.688.359-1.4.68-.648.293-1.316.55l-.494.186a26.486,26.486,0,0,1-4.022,1.109q-1.016.2-2.058.313-.861.1-1.739.139c-.417.021-.834.03-1.254.03a26.565,26.565,0,0,1-4.957-.464c-.426-.077-.843-.169-1.26-.269a26.251,26.251,0,0,1-5.817-2.147c-.166-.083-.331-.172-.5-.257-.245-.13-.485-.266-.724-.408.115-.16.24-.316.367-.47a15.685,15.685,0,0,1,23.326-1.213,16.054,16.054,0,0,1,1.5,1.733C800.373,737.625,800.489,737.788,800.6,737.953Z" transform="translate(-610.319 -541.121)"/><circle class="e" cx="12.986" cy="12.986" r="12.986" transform="translate(165.604 157.869)"/><circle class="f" cx="9.665" cy="9.665" r="9.665" transform="translate(164.292 171.534) rotate(-28.663)"/><path class="e" d="M806.31,655.558a13.145,13.145,0,0,1-7.512,2.322,8.055,8.055,0,0,0,3.193,1.314,26.506,26.506,0,0,1-10.827.061,7.006,7.006,0,0,1-2.267-.779,2.868,2.868,0,0,1-1.4-1.871c-.238-1.357.82-2.59,1.919-3.421a14.154,14.154,0,0,1,11.894-2.377,6.513,6.513,0,0,1,3.523,1.991,3.209,3.209,0,0,1,.3,3.811Z" transform="translate(-618.746 -486.259)"/><path class="a" d="M761.925,595.774c-.211-.016-.426-.029-.641-.038-.433-.022-.868-.032-1.307-.032a26.617,26.617,0,0,0-24.645,36.667c.086.215.176.429.272.641a26.809,26.809,0,0,0,10.522,12.034l.17.1c.144.087.285.17.426.247.24.144.481.279.724.41.167.087.333.173.5.256a26.2,26.2,0,0,0,5.819,2.147c.417.1.833.192,1.259.269a26.575,26.575,0,0,0,4.957.465c.42,0,.836-.01,1.256-.029.583-.026,1.163-.074,1.737-.138q1.043-.115,2.06-.314a26.694,26.694,0,0,0,4.021-1.109c.167-.064.333-.125.493-.189.449-.17.884-.352,1.317-.548q.711-.322,1.4-.683a26.874,26.874,0,0,0,10.955-10.637.8.8,0,0,1,.038-.07,26.609,26.609,0,0,0-21.329-39.448Zm23.62,31.432a25.874,25.874,0,0,1-2.778,7.671c-.023.042-.045.083-.067.122a26.073,26.073,0,0,1-10.788,10.445q-.682.356-1.381.667c-.388.173-.785.34-1.185.493-.167.064-.34.131-.51.189a25.332,25.332,0,0,1-3.47.993,24.606,24.606,0,0,1-2.647.417q-.822.091-1.663.122c-.359.016-.718.026-1.08.026a25.753,25.753,0,0,1-4.8-.449,24.8,24.8,0,0,1-2.848-.7,25.988,25.988,0,0,1-4.136-1.676c-.154-.08-.308-.16-.458-.244-.218-.115-.436-.234-.647-.359-.16-.09-.32-.186-.477-.279-.093-.055-.183-.109-.275-.167a26.2,26.2,0,0,1-10.086-11.467c-.1-.211-.189-.426-.279-.641a26.025,26.025,0,0,1,24-36.074c.439,0,.875.01,1.307.035.215.006.429.022.641.038a26.047,26.047,0,0,1,23.62,30.836Z" transform="translate(-581.978 -449.1)"/><path class="e" d="M784.878,627.087a2.6,2.6,0,0,0-3.347-1.93,4.21,4.21,0,0,0-2.611,3.31,4.749,4.749,0,0,0,.64,3.585,3.267,3.267,0,0,0,3.238,1.4,3.756,3.756,0,0,0,2.633-3.052,11.036,11.036,0,0,0-.272-4.233Z" transform="translate(-612.864 -469.039)"/><path class="e" d="M846.7,633.638a2.6,2.6,0,0,0-3.347-1.93,4.21,4.21,0,0,0-2.611,3.31,4.749,4.749,0,0,0,.64,3.585,3.267,3.267,0,0,0,3.238,1.4,3.756,3.756,0,0,0,2.632-3.052,11.036,11.036,0,0,0-.272-4.233Z" transform="translate(-654.882 -473.491)"/><path class="d" d="M599.1,273.516a26.342,26.342,0,0,1-27.7.441,16.008,16.008,0,0,1,2.78-3.741A15.8,15.8,0,0,1,599,273.341C599.037,273.4,599.072,273.456,599.1,273.516Z" transform="translate(-471.916 -224.736)"/><circle class="e" cx="13.072" cy="13.072" r="13.072" transform="translate(99.112 8.493)"/><circle class="g" cx="9.729" cy="9.729" r="9.729" transform="translate(98.888 29.99) rotate(-61.337)"/><path class="e" d="M582.827,189.511a13.233,13.233,0,0,0,7.562,2.337,8.109,8.109,0,0,1-3.214,1.322,26.683,26.683,0,0,0,10.9.061,7.053,7.053,0,0,0,2.282-.784,2.888,2.888,0,0,0,1.408-1.883c.239-1.366-.825-2.607-1.932-3.444a14.248,14.248,0,0,0-11.973-2.393,6.556,6.556,0,0,0-3.546,2,3.23,3.23,0,0,0-.3,3.836Z" transform="translate(-479.676 -169.512)"/><path class="a" d="M557.06,138.144a26.649,26.649,0,0,0-26.619,26.616,26.373,26.373,0,0,0,.788,6.386c.054.215.109.429.167.641a26.616,26.616,0,0,0,51.345,0c.058-.215.112-.427.164-.641a26.635,26.635,0,0,0-25.844-33Zm25.235,33c-.051.215-.109.429-.17.641a26.019,26.019,0,0,1-50.114,0c-.061-.215-.119-.426-.173-.641a25.762,25.762,0,0,1-.8-6.386,26.025,26.025,0,1,1,51.262,6.386Z" transform="translate(-444.075 -138.144)"/><path class="d" d="M329.737,561.65a26.34,26.34,0,0,1-27.7.442c.045-.087.093-.173.144-.256a15.812,15.812,0,0,1,27.4-.439c.019.026.035.054.051.08C329.669,561.531,329.7,561.592,329.737,561.65Z" transform="translate(-288.855 -420.55)"/><path class="e" d="M327,465.856a13.01,13.01,0,1,1-3.81-9.262A13.072,13.072,0,0,1,327,465.856Z" transform="translate(-288.047 -351.972)"/><path class="f" d="M333.779,490.726a10.044,10.044,0,0,1-.516,1.1,9.719,9.719,0,1,1,.516-1.1Z" transform="translate(-297.658 -368.72)"/><path class="a" d="M307.127,434.737c-.205-.224-.42-.445-.641-.66a26.6,26.6,0,1,0,0,37.792c.218-.215.433-.433.641-.657A26.6,26.6,0,0,0,307.127,434.737Zm-.641,36.289a26.115,26.115,0,0,1-4.684,3.842s-.006,0-.01.006a26.049,26.049,0,0,1-27.385.436s0,0-.006,0a26.024,26.024,0,1,1,32.085-40.39c.221.224.433.455.641.689a26.014,26.014,0,0,1,0,34.732C306.922,470.571,306.708,470.8,306.486,471.026Z" transform="translate(-261.071 -334.021)"/><path class="e" d="M330.292,452.513a6.884,6.884,0,0,0-6.347-3.377,13.49,13.49,0,0,0-3.836,1.074l-6.313,2.463c-1.634.637-3.423,1.418-4.132,3.022-.658,1.489-.167,3.208.33,4.758l2.362,7.367a22.423,22.423,0,0,1,1.339-4.866,7.535,7.535,0,0,1,3.272-3.73,10.667,10.667,0,0,1,5.414-.735c2.607.125,5.442.457,7.295,2.3a7.577,7.577,0,0,1,1.923,3.755,22.6,22.6,0,0,1,.4,4.25,35.238,35.238,0,0,0,2.691-5.769,14.273,14.273,0,0,0,1-4.67,6.568,6.568,0,0,0-1.505-4.442,4.308,4.308,0,0,0-4.333-1.364" transform="translate(-293.82 -349.484)"/><path class="b" d="M311.225,345.872l-.641-.008c.008-.641.026-1.291.055-1.933l.64.029C311.251,344.595,311.232,345.238,311.225,345.872Z" transform="translate(-294.661 -277.996)"/><path class="b" d="M312.281,224.289l-.637-.069c.134-1.225.309-2.46.521-3.672l.631.11C312.586,221.856,312.413,223.078,312.281,224.289Zm1.263-7.221-.623-.151c.29-1.2.623-2.4.99-3.574l.612.191c-.363,1.162-.692,2.351-.979,3.534Zm2.186-7-.6-.23c.443-1.15.929-2.3,1.445-3.419l.582.268c-.511,1.107-.992,2.244-1.429,3.381Zm3.073-6.662-.563-.305c.587-1.082,1.217-2.16,1.873-3.2l.543.341c-.649,1.032-1.272,2.1-1.852,3.168Zm3.9-6.21-.52-.375c.721-1,1.484-1.986,2.267-2.936l.494.408c-.775.94-1.529,1.917-2.242,2.9Zm4.665-5.658-.467-.438c.842-.9,1.724-1.78,2.623-2.622l.438.467c-.889.833-1.761,1.706-2.594,2.593Zm5.348-5.015-.408-.494c.95-.783,1.937-1.546,2.935-2.266l.375.519c-.987.712-1.963,1.466-2.9,2.241Zm5.942-4.291-.341-.543c1.042-.655,2.119-1.285,3.2-1.871l.305.563c-1.069.58-2.134,1.2-3.165,1.85Zm6.441-3.492-.268-.582c1.117-.515,2.265-1,3.413-1.443l.23.6c-1.135.437-2.27.917-3.374,1.427Zm6.833-2.632-.191-.612c1.174-.367,2.377-.7,3.574-.991l.151.623c-1.184.287-2.372.617-3.534.98Zm7.123-1.73-.111-.631c1.211-.212,2.446-.388,3.671-.522l.07.637c-1.211.133-2.433.307-3.631.516Z" transform="translate(-295.381 -161.984)"/><path class="b" d="M482.387,172.852l-.029-.64c.642-.029,1.292-.047,1.933-.055l.008.641C483.665,172.8,483.022,172.823,482.387,172.852Z" transform="translate(-411.398 -161.259)"/><path class="b" d="M47.786,204.231l-.458-.449-2.209,2.259-2.092-2.368-.48.425,2.549,2.884Z" transform="translate(-28.856 -138.415)"/><path class="b" d="M219.731,32.286l-.449-.458,2.259-2.209-2.368-2.092.425-.48,2.884,2.549Z" transform="translate(-148.89 -18.381)"/><path class="b" d="M777.581,191.03q-.846-.445-1.7-.875l.287-.573q.865.432,1.716.881Z" transform="translate(-610.872 -173.101)"/><path class="b" d="M831.847,315.118l-.593-.243c.482-1.176.946-2.376,1.378-3.567l.6.219C832.8,312.726,832.333,313.934,831.847,315.118Zm2.627-7.237-.611-.194c.384-1.21.748-2.444,1.082-3.668l.618.169c-.336,1.232-.7,2.475-1.09,3.693Zm2.026-7.428-.625-.143c.284-1.238.545-2.5.777-3.745l.63.117c-.234,1.255-.5,2.524-.782,3.771Zm1.408-7.57-.634-.091c.181-1.257.337-2.534.466-3.8l.638.065c-.129,1.271-.287,2.557-.469,3.823Zm.78-7.661-.64-.039c.076-1.266.127-2.552.151-3.822l.641.012c-.024,1.278-.076,2.573-.152,3.848Zm.147-7.7-.641.014q-.019-.836-.052-1.671c-.029-.713-.066-1.437-.111-2.151l.64-.04c.045.719.083,1.448.112,2.166q.034.84.052,1.682Zm-1.123-7.618c-.132-1.262-.291-2.539-.475-3.794l.634-.093c.185,1.264.345,2.549.478,3.82Zm-1.1-7.566c-.234-1.246-.5-2.506-.783-3.744l.624-.144c.287,1.246.552,2.514.788,3.769Zm-1.717-7.453c-.335-1.225-.7-2.459-1.085-3.668l.611-.194c.387,1.217.755,2.46,1.092,3.693Zm-2.318-7.289c-.434-1.193-.9-2.394-1.38-3.569l.593-.243c.485,1.183.952,2.392,1.389,3.593Zm-2.9-7.078c-.529-1.154-1.09-2.314-1.666-3.445l.571-.291c.58,1.139,1.144,2.306,1.677,3.468ZM826.2,233.7c-.622-1.107-1.275-2.217-1.941-3.3l.546-.336c.671,1.089,1.329,2.206,1.955,3.321Zm-4.017-6.514c-.711-1.053-1.453-2.106-2.205-3.129l.516-.38c.758,1.03,1.505,2.09,2.221,3.15Zm-4.537-6.165c-.8-.992-1.621-1.98-2.456-2.937l.483-.421c.84.964,1.672,1.959,2.472,2.958Zm-5.03-5.771c-.874-.924-1.779-1.84-2.69-2.726l.447-.459c.917.891,1.828,1.815,2.708,2.744Zm-5.491-5.338c-.948-.848-1.926-1.688-2.907-2.5l.407-.495c.988.813,1.973,1.659,2.927,2.513Zm-5.915-4.869c-1.01-.764-2.053-1.519-3.1-2.244l.365-.527c1.052.73,2.1,1.49,3.119,2.26Zm-6.285-4.359c-1.069-.679-2.17-1.346-3.271-1.984l.321-.555c1.109.642,2.217,1.314,3.293,2Z" transform="translate(-621.594 -178.92)"/><path class="b" d="M908.526,575.448l-.577-.278q.417-.865.815-1.734l.583.267Q908.946,574.577,908.526,575.448Z" transform="translate(-700.627 -433.966)"/><path class="b" d="M514.59,52.844l.6-.213-1.053-2.979,3.048-.833-.17-.618-3.712,1.015Z" transform="translate(-348.783 -32.757)"/><path class="b" d="M643.078,431.252l.609-.2.985,3,2.922-1.2.243.593-3.559,1.464Z" transform="translate(-436.974 -292.94)"/></g></svg>