<svg xmlns="http://www.w3.org/2000/svg" width="28.049" height="31.812" viewBox="0 0 28.049 31.812">

    <path class="a"
        fill="#ffffff"
        d="M6.471,2,21.457,16.879l4.109-4.109L7.4,2.281A1.988,1.988,0,0,0,6.471,2Zm-1.254.692A1.706,1.706,0,0,0,5,3.535V32.449a1.556,1.556,0,0,0,.13.627L20.462,17.852Zm21.6,10.791-4.39,4.368L26.82,22.2l5.363-3.071a1.364,1.364,0,0,0,.022-2.53C31.748,16.351,28.356,14.375,26.82,13.483Zm-5.363,5.342L6.341,33.812a1.7,1.7,0,0,0,.779-.216l12.565-7.266,5.9-3.4Z"
        transform="translate(-5 -2)" />
</svg>