<svg xmlns="http://www.w3.org/2000/svg" width="183.057" height="205.158"
    viewBox="0 0 183.057 205.158">
    <defs>
        <style>
            .a{fill:#e6e6e6;}.b{fill:#fff;}.c{fill:#7d7d7d;}.d{fill:#3f3d56;}.e{fill:#2f2e41;}.f{fill:#ccc;}
        </style>
    </defs>
    <path class="a"
        d="M387.608,134.864h-1.127v-30.88a17.873,17.873,0,0,0-17.873-17.873H303.184a17.873,17.873,0,0,0-17.873,17.873V273.4a17.873,17.873,0,0,0,17.873,17.873h65.424A17.873,17.873,0,0,0,386.481,273.4V156.845h1.127Z"
        transform="translate(-285.311 -86.111)" />
    <path class="b"
        d="M381.892,102.606h-8.54a6.341,6.341,0,0,1-5.871,8.736H330a6.341,6.341,0,0,1-5.871-8.736h-7.976a13.347,13.347,0,0,0-13.347,13.347V285.117a13.347,13.347,0,0,0,13.347,13.347h65.74a13.347,13.347,0,0,0,13.347-13.347h0V115.953a13.347,13.347,0,0,0-13.347-13.347Z"
        transform="translate(-297.874 -97.956)" />
    <path class="a"
        d="M406.948,516.685H328.125a1.461,1.461,0,0,1-1.46-1.46V495.673a1.461,1.461,0,0,1,1.46-1.46h78.824a1.461,1.461,0,0,1,1.46,1.46v19.553a1.461,1.461,0,0,1-1.46,1.459ZM328.125,494.8a.877.877,0,0,0-.876.876v19.553a.877.877,0,0,0,.876.876h78.824a.877.877,0,0,0,.876-.876V495.673a.877.877,0,0,0-.876-.876Z"
        transform="translate(-315.008 -379.171)" />
    <circle class="a" cx="6.131" cy="6.131" r="6.131" transform="translate(17.204 120.147)" />
    <path class="a"
        d="M415.714,519.573a1.022,1.022,0,1,0,0,2.044h48.17a1.022,1.022,0,1,0,.039-2.043H415.714Z"
        transform="translate(-378.22 -397.381)" />
    <path class="a"
        d="M415.714,541.321a1.022,1.022,0,1,0,0,2.044h48.17a1.022,1.022,0,1,0,.033-2.043h-48.2Z"
        transform="translate(-378.22 -412.999)" />
    <path class="a"
        d="M406.948,632.675H328.125a1.461,1.461,0,0,1-1.46-1.46V611.663a1.461,1.461,0,0,1,1.46-1.46h78.824a1.461,1.461,0,0,1,1.46,1.46v19.553A1.461,1.461,0,0,1,406.948,632.675Zm-78.824-21.888a.877.877,0,0,0-.876.876v19.553a.877.877,0,0,0,.876.876h78.824a.877.877,0,0,0,.876-.876V611.663a.877.877,0,0,0-.876-.876Z"
        transform="translate(-315.008 -462.464)" />
    <circle class="a" cx="6.131" cy="6.131" r="6.131" transform="translate(17.204 152.845)" />
    <path class="a"
        d="M415.714,635.563a1.022,1.022,0,1,0,0,2.044h48.17a1.022,1.022,0,0,0,.033-2.044h-48.2Z"
        transform="translate(-378.22 -480.674)" />
    <path class="a"
        d="M415.714,657.311a1.022,1.022,0,1,0,0,2.044h48.17a1.022,1.022,0,1,0,.033-2.043h-48.2Z"
        transform="translate(-378.22 -496.292)" />
    <path class="a"
        d="M395.118,288.694a27.723,27.723,0,0,1-27.734-27.711v-.023c0-.058,0-.119,0-.177a27.734,27.734,0,1,1,27.734,27.911h0Zm0-54.885A27.208,27.208,0,0,0,367.971,260.8c0,.062,0,.113,0,.159a27.154,27.154,0,1,0,27.154-27.15Z"
        transform="translate(-344.248 -191.755)" />
    <circle class="b" cx="11.276" cy="11.276" r="11.276" transform="translate(77.554 107.922)" />
    <path class="c"
        d="M563.476,512.015h-6.119a2.931,2.931,0,1,1,0-5.862h6.16a2.931,2.931,0,1,1-.039,5.862Z"
        transform="translate(-478.563 -387.745)" />
    <rect class="d" width="91.344" height="0.632" transform="translate(91.713 204.472)" />
    <path class="c"
        d="M626.166,573.807a1.85,1.85,0,0,1-.178-.355l-1.456-3.9a1.835,1.835,0,0,1,1.076-2.357L658.1,555.066a1.834,1.834,0,0,1,2.357,1.075l1.455,3.9a1.832,1.832,0,0,1-1.076,2.357l-32.486,12.13a1.834,1.834,0,0,1-2.18-.721Z"
        transform="translate(-528.825 -422.786)" />
    <path class="e"
        d="M706.8,551.516l-13.211,5.268a1.691,1.691,0,0,0-1.154,2.03l1.533,6.138a1.691,1.691,0,0,0,2.361,1.12l13.247-6.235a1.694,1.694,0,0,0,.994-2.175l-1.592-5.152A1.694,1.694,0,0,0,706.8,551.516Z"
        transform="translate(-577.63 -420.243)" />
    <path class="c"
        d="M795.268,591.179a1.834,1.834,0,0,1-1.943-1.224l-11.308-32.781a1.832,1.832,0,0,1,1.135-2.33l3.933-1.357a1.834,1.834,0,0,1,2.33,1.135L800.723,587.4a1.835,1.835,0,0,1-1.135,2.33l-3.933,1.357A1.853,1.853,0,0,1,795.268,591.179Z"
        transform="translate(-641.925 -421.664)" />
    <path class="e"
        d="M790.417,552.872l4.34,13.544a1.692,1.692,0,0,1-.832,2.181l-5.711,2.722a1.691,1.691,0,0,1-2.367-1.109l-3.617-14.187a1.694,1.694,0,0,1,1.046-2.151l4.988-2.049A1.694,1.694,0,0,1,790.417,552.872Z"
        transform="translate(-642.084 -420.474)" />
    <path class="e"
        d="M749.624,714.441h-4.161a1.835,1.835,0,0,1-1.832-1.832V677.931a1.835,1.835,0,0,1,1.832-1.832h4.161a1.835,1.835,0,0,1,1.832,1.832v34.677A1.835,1.835,0,0,1,749.624,714.441Z"
        transform="translate(-614.432 -509.784)" />
    <path class="e"
        d="M778.816,714.441h-4.161a1.835,1.835,0,0,1-1.832-1.832V677.931a1.835,1.835,0,0,1,1.832-1.832h4.161a1.835,1.835,0,0,1,1.832,1.832v34.677A1.835,1.835,0,0,1,778.816,714.441Z"
        transform="translate(-635.395 -509.784)" />
    <path class="f"
        d="M753.062,584.7h-18.9a1.975,1.975,0,0,1-1.973-1.973V552.011a11.426,11.426,0,1,1,22.851,0v30.711a1.976,1.976,0,0,1-1.973,1.973Z"
        transform="translate(-606.212 -412.471)" />
    <path class="e" d="M791.925,585.724h-9.584V531.556l.178.049a12.793,12.793,0,0,1,9.406,12.315Z"
        transform="translate(-642.23 -405.987)" />
    <path class="e" d="M735.911,585.724h-9.584v-41.8a12.793,12.793,0,0,1,9.406-12.315l.178-.049Z"
        transform="translate(-602.006 -405.987)" />
    <circle class="c" cx="15.087" cy="15.087" r="15.087" transform="translate(122.167 91.589)" />
    <path class="e"
        d="M739.721,394.259s.846-23.4-10.148-15.786c0,0-6.343-21.283-21.847,10.571l-4.51,4.51s20.3-2.819,39.184,5.92Z"
        transform="translate(-585.41 -291.057)" />
    <path class="e"
        d="M763.112,466.587a5.186,5.186,0,0,1-2.985-.711,2.293,2.293,0,0,1-.9-1.712,1.542,1.542,0,0,1,.524-1.267,1.99,1.99,0,0,1,1.883-.271l-.761-5.561.559-.077.894,6.537-.466-.214a1.707,1.707,0,0,0-1.744.016.991.991,0,0,0-.325.816,1.733,1.733,0,0,0,.671,1.276,4.664,4.664,0,0,0,2.668.6Z"
        transform="translate(-625.628 -352.44)" />
    <rect class="e" width="3.036" height="0.564" transform="translate(129.444 105.106)" />
    <rect class="e" width="3.036" height="0.564" transform="translate(139.029 105.106)" />
    <path class="d"
        d="M621.977,565.31a1.691,1.691,0,0,1-2.246-.822L610,543.519a1.691,1.691,0,0,1,3.069-1.424l9.729,20.969A1.691,1.691,0,0,1,621.977,565.31Z"
        transform="translate(-518.36 -412.852)" />
    <path class="c"
        d="M575.775,501.7a1.128,1.128,0,0,1-1.128-1.128V486.208H560.553a1.128,1.128,0,1,1,0-2.255h15.222a1.128,1.128,0,0,1,1.128,1.128v15.491a1.128,1.128,0,0,1-1.127,1.127Z"
        transform="translate(-482.153 -371.803)" />
    <path class="d"
        d="M569.387,486.815a13.531,13.531,0,1,1,6.58-17.969A13.531,13.531,0,0,1,569.387,486.815Zm-9.966-21.48A10.148,10.148,0,1,0,572.9,470.27a10.148,10.148,0,0,0-13.477-4.935Z"
        transform="translate(-475.499 -355.325)" />
</svg>