<svg xmlns="http://www.w3.org/2000/svg" width="314.297" height="165.035"
    viewBox="0 0 314.297 165.035">
    <defs>
        <style>
            .a{";}.b{;}.c{fill:#ccc;}.d{fill:#2c2c2c;}.e{fill:#3f3d56;}.f{fill:#ffb8b8;}.g{fill:#2f2e41;}.h{fill:#1d1d1d;}
        </style>
    </defs>
    <path fill="#f2f2f2"
        d="M752.378,396.548c-1.646,10.464-6.747,20.621-15.165,27.049-8.284,6.33-18.9,8.579-29.144,10.513q-18.433,3.483-36.967,6.367-2.627.419-5.258.809H593.874c-.073-.1-.15-.2-.222-.3-.117-.17-.235-.34-.348-.51-.065-.1-.129-.2-.194-.3h45.142a4.838,4.838,0,0,0,4.834-4.83V375.094c.291-.914.562-1.832.809-2.763a72.838,72.838,0,0,0,2.237-13.231c.243-3.115.316-6.229.263-9.348a207.327,207.327,0,0,0-2.488-25.653c-.089-.627-.182-1.258-.271-1.885-.858-5.914-1.638-12.349,1.343-17.531,3.41-5.93,10.978-8.4,17.794-7.795,12.26,1.1,22.587,10.485,27.955,21.564s6.565,23.671,7.054,35.968a113.09,113.09,0,0,1-.679,19.873q4.611-10.545,9.231-21.091c1.642-3.75,3.37-7.621,6.411-10.363,6.359-5.74,16.876-4.583,23.667.643s10.509,13.494,12.984,21.693C752.463,375.316,754.028,386.084,752.378,396.548Z"
        transform="translate(-438.748 -276.25)" />
    <path fill="#fff"
        d="M824.023,401.569a52.134,52.134,0,0,1,6.437,25.916,62.731,62.731,0,0,1-5.8,25.859,64.963,64.963,0,0,1-13.942,19.537,59.192,59.192,0,0,1-20.035,12.8,52.356,52.356,0,0,1-27.187,2.583q-1.9-.327-3.777-.793c-.758-.187-1.082.983-.323,1.17a53.708,53.708,0,0,0,28.817-.829A59.37,59.37,0,0,0,809.324,475.8a65.9,65.9,0,0,0,15.139-19.3,64.515,64.515,0,0,0,7.109-25.833,54.91,54.91,0,0,0-4.959-26.753q-.719-1.508-1.543-2.962a.607.607,0,0,0-1.048.612Z"
        transform="translate(-537.516 -338.108)" />
    <path fill="#fff"
        d="M731.023,295.279a131.6,131.6,0,0,1,11.446,28.713,138.675,138.675,0,0,1,2.359,61.306,131.1,131.1,0,0,1-9.218,29.522c-4.215,9.363-10.282,19.228-20.647,22.507a21.624,21.624,0,0,1-3.584.8c-.77.106-.442,1.275.323,1.17,10.721-1.471,18.171-10.378,22.843-19.458a124.575,124.575,0,0,0,10.566-29.9,139.765,139.765,0,0,0-.477-62.342A133.656,133.656,0,0,0,733.9,298.155q-.889-1.758-1.832-3.489c-.373-.686-1.421-.074-1.048.612Z"
        transform="translate(-508.917 -274.802)" />
    <path class="c"
        d="M520,292.259H447.352a5.569,5.569,0,0,0-5.562,5.562v36.4h11.18a4.8,4.8,0,0,1,4.089,2.261l3.875,6.169,3.705,5.894.7,1.108,4.239,6.743.049.077h55.938V297.821A5.569,5.569,0,0,0,520,292.259Z"
        transform="translate(-348.638 -273.547)" />
    <path fill="#fff" d="M505.659,319.769h-36a3.6,3.6,0,0,0,0,7.2h36a3.6,3.6,0,1,0,0-7.2Z"
        transform="translate(-363.093 -289.93)" />
    <path fill="#fff"
        d="M525.618,363.449h-55.63a3.928,3.928,0,1,0,0,7.855h55.63a3.928,3.928,0,1,0,0-7.855Z"
        transform="translate(-363.09 -315.941)" />
    <path fill="#fff"
        d="M534.583,399.69a3.925,3.925,0,0,0-3.552-2.261H475.4c-.085,0-.166,0-.251.008a4.819,4.819,0,0,1,1.776,1.675l3.875,6.169h50.23a3.923,3.923,0,0,0,3.552-5.59Z"
        transform="translate(-368.504 -336.176)" />
    <path fill="#fff"
        d="M548.693,434.807a3.927,3.927,0,0,0-3.887-3.4H498.28l.7,1.108,4.239,6.743h41.59a3.883,3.883,0,0,0,2.278-.732,3.922,3.922,0,0,0,1.646-3.2,3.732,3.732,0,0,0-.036-.526Z"
        transform="translate(-382.277 -356.411)" />
    <path class="d"
        d="M594.123,330.315,588.46,328.1l-28.234-11.019L526.446,303.9a5.572,5.572,0,0,0-7.2,3.163l-1.181,3.03-2.811,7.2-4.085,10.473-3.066,7.855-2.3,5.89-3.066,7.851-2.3,5.894-.065.17-.368.938,4.239,6.743.049.077h78.517a4.82,4.82,0,0,1,3.758,1.8l.332-.841,4.053-10.379,6.335-16.233A5.573,5.573,0,0,0,594.123,330.315Z"
        transform="translate(-383.302 -280.255)" />
    <path class="b"
        d="M599.777,349.875l-3.026-1.181-30.507-11.9a3.6,3.6,0,1,0-2.617,6.707l10.076,3.932,12.463,4.862,10.586,4.134.408.158a3.6,3.6,0,1,0,2.617-6.707Z"
        transform="translate(-419.827 -299.92)" />
    <path fill="#fff"
        d="M602.278,397.967l-15.193-5.93-10.845-4.231-5.793-2.261-15.088-5.889-4.9-1.913a3.928,3.928,0,0,0-4.947,1.913c-.048.1-.1.206-.138.315a3.925,3.925,0,0,0,2.229,5.085l1.254.489,20.112,7.851,18.118,7.071,12.337,4.818a3.927,3.927,0,1,0,2.856-7.317Z"
        transform="translate(-410.16 -324.292)" />
    <path fill="#fff"
        d="M579.726,425.638l-.975-.38-9.534-3.721-8.709-3.4-15.1-5.894-7.305-2.852a3.927,3.927,0,0,0-2.852,7.317l3.657,1.428,18.243,7.119,1.877.732.194.077h21.6Z"
        transform="translate(-402.801 -343.141)" />
    <path fill="#fff"
        d="M535.467,444.836l-1.877-.732-7.843-3.062a3.921,3.921,0,0,0-5.307,3.062,3.721,3.721,0,0,0-.044.732.45.45,0,0,0,0,.077h15.266Z"
        transform="translate(-395.446 -361.986)" />
    <path class="e"
        d="M485.476,416.983l-1.877-.732H454.248a3.722,3.722,0,0,0-.044.732h-4.013l.049.077h35.43Zm0,0H450.192l.049.077h35.43Zm0,0H450.192l.049.077h35.43Zm.194.077-.194-.077H450.192l.049.077Zm-70.792,81a4.837,4.837,0,0,1-4.83-4.83V399.642a4.838,4.838,0,0,1,4.83-4.834h7.528V394h-7.528a5.649,5.649,0,0,0-5.639,5.643v93.589a5.643,5.643,0,0,0,3.3,5.129h71.264c-.065-.1-.129-.2-.194-.3Zm117.969-80.047a5.614,5.614,0,0,0-4.089-1.764H450.689l-4.368-6.949-.105-.17-3.705-5.894-4.15-6.6A5.653,5.653,0,0,0,433.587,394H414.879a5.649,5.649,0,0,0-5.639,5.643v93.589a5.643,5.643,0,0,0,3.3,5.129,5.562,5.562,0,0,0,2.334.51H528.758a5.582,5.582,0,0,0,2.338-.51,5.643,5.643,0,0,0,3.3-5.129V421.893a5.61,5.61,0,0,0-1.554-3.879Zm.744,75.217a4.838,4.838,0,0,1-4.834,4.83H414.879a4.837,4.837,0,0,1-4.83-4.83V399.642a4.838,4.838,0,0,1,4.83-4.834h18.708a4.8,4.8,0,0,1,4.089,2.261l3.875,6.169,3.705,5.894.7,1.108,4.239,6.743.049.077h78.518a4.838,4.838,0,0,1,4.834,4.834Zm-48.115-76.248H450.192l.049.077h35.43Zm0,0H450.192l.049.077h35.43Zm0,0H450.192l.049.077h35.43Zm0,0-1.877-.732h-32.91l-4.369-6.949-.368.938,4.239,6.743.049.077h35.43Z"
        transform="translate(-329.254 -334.134)" />
    <path class="f" d="M124.387,274.614l-2.317,4.844-19.787-6.631,3.419-7.15Z"
        transform="translate(-60.91 -158.211)" />
    <path class="g" d="M6.022,0H16.876V6.52H0v-.5A6.022,6.022,0,0,1,6.022,0Z"
        transform="matrix(0.431, -0.902, 0.902, 0.431, 55.307, 129.927)" />
    <path class="f" d="M160.226,363.694l-5.367-.181-.226-20.89,6.291.371Z"
        transform="translate(-92.084 -204.032)" />
    <path class="g" d="M6.022,0H16.876V6.52H0v-.5A6.022,6.022,0,0,1,6.022,0Z"
        transform="translate(52.477 157.598) rotate(1.933)" />
    <path class="g"
        d="M335.554,422.548s-16.425-4.161-23.871,1.971l-4.161,12.045-16.644,23.652,24.09,14.454,4.38-10.95-10.512-5.256,12.7-10.95-2.19,57.815,8.322,1.314S346.065,435.25,335.554,422.548Z"
        transform="translate(-258.77 -350.313)" />
    <path class="h"
        d="M339.721,377.7l.2-.356c2.11-3.752,1.768-9.861,1.11-14.325a110.878,110.878,0,0,1-.424-15.2,7.237,7.237,0,0,1,5.769-6.966,82.089,82.089,0,0,1,14.343-1.3l0,.219,0-.219a3.335,3.335,0,0,1,3.347,3.253c.1,5.244.067,14.807-1.234,19.937-1.931,7.615,1.089,12.789,1.12,12.841l.182.3Z"
        transform="translate(-287.856 -301.713)" />
    <path class="f"
        d="M310.2,418.06a4.055,4.055,0,0,0,1.541-6.024l9.269-39.972h-7.008l-8.181,39.184a4.077,4.077,0,0,0,4.378,6.812Z"
        transform="translate(-266.787 -321.071)" />
    <path class="f"
        d="M417.542,366.961l-15.469-14.633-4.181,5.853,10.452,9.2-13.707,10.885c-.1-.007-.2-.015-.3-.015a4.39,4.39,0,1,0,4.347,4.974l.043.043Z"
        transform="translate(-317.763 -309.318)" />
    <path class="h"
        d="M336.295,343.83s-9.66-1.584-10.536,5.862-1.314,7.446-1.314,7.446,7.008-1.314,8.76.438S336.295,343.83,336.295,343.83Z"
        transform="translate(-278.759 -304.174)" />
    <path class="h"
        d="M389.413,340.849s7.884-1.314,11.388,2.19,5.256,4.38,5.256,4.38-7.884,4.38-4.818,8.322c0,0-8.322-3.942-9.636-2.628S389.413,340.849,389.413,340.849Z"
        transform="translate(-317.447 -302.339)" />
    <path class="g"
        d="M368.706,259.081a7.205,7.205,0,0,1-1.7-8.656,8.571,8.571,0,0,1,7.885-4.418,10.621,10.621,0,0,1,8.019,4.549c2.588,3.646,3.131,8.712,6.572,11.566,3.108,2.578,7.561,2.5,11.594,2.3a10.032,10.032,0,0,0,3.983-.753,3.421,3.421,0,0,0,2.059-3.23,4.313,4.313,0,0,1-.934,5.176,8.766,8.766,0,0,1-5.179,2.1,19.242,19.242,0,0,1-17.455-7.658c-1.4-1.936-2.486-4.19-4.411-5.607s-5.136-1.516-6.318.562c-.585,1.028-.527,2.317-1.065,3.37s-2.283,1.621-2.8.558"
        transform="translate(-303.655 -246)" />
    <ellipse class="g" cx="12.135" cy="12.135" rx="12.135" ry="12.135"
        transform="translate(52.536 9.933)" />
    <circle class="f" cx="9.935" cy="9.935" r="9.935" transform="translate(54.663 15.283)" />
    <path class="g"
        d="M348.8,282.181c1.35.3.908,2.56,1.975,3.439.962.793,2.349-.023,3.56-.318a6.854,6.854,0,0,1,4.542.869,18.917,18.917,0,0,0,4.314,1.883,4.049,4.049,0,0,0,4.23-1.357,4.5,4.5,0,0,0-.124-4.315,10.019,10.019,0,0,0-17.977-.249"
        transform="translate(-293.263 -264.26)" />
    <path class="e"
        d="M501.122,652.4a.406.406,0,0,1-.4.4H211.9a.4.4,0,1,1,0-.809H500.718a.406.406,0,0,1,.4.4Z"
        transform="translate(-211.5 -487.772)" />
</svg>